<?xml version="1.0" encoding="UTF-8" ?>
<!DOCTYPE svg PUBLIC "-//W3C//DTD SVG 1.1//EN" "http://www.w3.org/Graphics/SVG/1.1/DTD/svg11.dtd">
<svg width="1787pt" height="424pt" viewBox="0 0 1787 424" version="1.1" xmlns="http://www.w3.org/2000/svg">
<g id="#ebf6fcff">
<path fill="#ebf6fc" opacity="1.00" d=" M 142.10 67.58 C 165.73 58.92 192.15 58.20 216.24 65.43 C 216.44 79.05 216.56 92.69 216.22 106.31 C 203.73 106.73 191.23 106.25 178.73 106.55 C 178.79 131.81 178.72 157.08 178.77 182.35 C 153.67 182.38 128.58 182.35 103.49 182.37 C 103.51 195.19 103.49 208.02 103.50 220.85 C 103.51 233.33 103.49 245.80 103.51 258.28 C 128.59 258.29 153.67 258.28 178.76 258.28 C 178.74 283.35 178.75 308.42 178.75 333.49 C 191.22 333.43 203.69 333.66 216.16 333.37 L 217.07 333.33 C 217.07 339.00 216.92 344.66 217.01 350.32 C 176.67 350.59 136.31 350.46 95.96 350.39 C 94.65 349.16 92.80 349.13 91.13 348.80 C 69.93 345.43 50.34 333.54 37.27 316.56 C 25.54 301.40 18.87 282.17 19.54 262.95 C 19.26 232.32 37.66 202.80 64.62 188.55 C 62.49 163.90 68.33 138.62 81.27 117.52 C 95.09 94.61 116.92 76.66 142.10 67.58 Z" />
</g>
<g id="#bde6fcff">
<path fill="#bde6fc" opacity="1.00" d=" M 216.24 65.43 C 245.50 74.17 270.95 94.63 285.76 121.34 C 302.67 121.61 319.45 127.65 332.59 138.32 C 347.17 149.86 357.06 166.91 360.40 185.16 C 382.23 195.17 397.82 215.45 406.37 237.46 C 412.45 253.79 415.48 271.81 411.80 289.05 C 408.45 307.53 397.11 324.18 381.51 334.55 C 368.86 343.03 353.95 347.81 338.86 349.35 C 320.96 350.85 302.98 349.97 285.03 350.21 C 262.36 350.28 239.68 350.05 217.01 350.32 C 216.92 344.66 217.07 339.00 217.07 333.33 C 229.55 333.11 242.04 333.22 254.52 333.28 C 254.74 308.28 254.51 283.27 254.64 258.26 C 279.75 258.32 304.87 258.26 329.99 258.29 C 330.01 245.48 329.99 232.68 330.00 219.87 C 329.99 207.36 330.01 194.85 329.99 182.34 C 304.87 182.39 279.74 182.35 254.62 182.36 C 254.62 157.09 254.59 131.83 254.63 106.56 C 242.13 106.53 229.63 106.56 217.13 106.55 C 204.33 106.54 191.53 106.55 178.73 106.55 C 191.23 106.25 203.73 106.73 216.22 106.31 C 216.56 92.69 216.44 79.05 216.24 65.43 Z" />
</g>
<g id="#b71c1cff">
<path fill="#b71c1c" opacity="1.00" d=" M 178.73 106.55 C 191.53 106.55 204.33 106.54 217.13 106.55 C 217.22 144.38 217.12 182.21 217.18 220.05 C 231.44 220.23 245.72 220.32 259.98 219.86 C 283.32 219.87 306.66 219.84 330.00 219.87 C 329.99 232.68 330.01 245.48 329.99 258.29 C 304.87 258.26 279.75 258.32 254.64 258.26 C 254.51 283.27 254.74 308.28 254.52 333.28 C 242.04 333.22 229.55 333.11 217.07 333.33 L 216.16 333.37 C 216.28 295.87 216.26 258.37 216.17 220.87 C 178.61 220.77 141.06 220.80 103.50 220.85 C 103.49 208.02 103.51 195.19 103.49 182.37 C 128.58 182.35 153.67 182.38 178.77 182.35 C 178.72 157.08 178.79 131.81 178.73 106.55 Z" />
</g>
<g id="#f44336ff">
<path fill="#f44336" opacity="1.00" d=" M 217.13 106.55 C 229.63 106.56 242.13 106.53 254.63 106.56 C 254.59 131.83 254.62 157.09 254.62 182.36 C 279.74 182.35 304.87 182.39 329.99 182.34 C 330.01 194.85 329.99 207.36 330.00 219.87 C 306.66 219.84 283.32 219.87 259.98 219.86 C 245.72 220.32 231.44 220.23 217.18 220.05 C 217.12 182.21 217.22 144.38 217.13 106.55 Z" />
<path fill="#f44336" opacity="1.00" d=" M 103.50 220.85 C 141.06 220.80 178.61 220.77 216.17 220.87 C 216.26 258.37 216.28 295.87 216.16 333.37 C 203.69 333.66 191.22 333.43 178.75 333.49 C 178.75 308.42 178.74 283.35 178.76 258.28 C 153.67 258.28 128.59 258.29 103.51 258.28 C 103.49 245.80 103.51 233.33 103.50 220.85 Z" />
</g>
<g id="#001235ff">
<path fill="#001235" opacity="1.00" d=" M 489.12 138.09 C 500.12 125.93 516.92 120.69 532.95 120.51 C 553.58 120.28 575.05 125.02 591.74 137.65 C 585.86 146.99 580.05 156.38 574.17 165.72 C 564.71 158.06 553.15 152.83 540.95 151.81 C 533.08 151.15 524.42 151.12 517.60 155.65 C 511.85 159.44 509.86 167.20 511.60 173.62 C 512.94 178.15 517.28 180.82 521.40 182.52 C 532.11 186.89 543.79 187.80 554.79 191.20 C 567.25 194.90 580.17 200.00 588.72 210.24 C 596.72 219.82 598.24 233.09 596.76 245.09 C 595.28 257.72 588.71 269.76 578.47 277.39 C 565.86 287.01 549.53 290.24 533.96 289.99 C 511.72 289.81 489.07 282.88 472.08 268.19 C 478.15 258.76 484.44 249.46 490.38 239.94 C 503.19 252.44 521.16 259.54 539.07 258.97 C 545.94 258.64 553.35 257.38 558.60 252.57 C 564.92 246.81 565.58 234.89 558.07 229.82 C 549.63 224.05 539.19 222.66 529.44 220.42 C 516.34 217.32 503.02 213.15 492.27 204.75 C 484.79 198.98 479.51 190.46 477.90 181.14 C 475.10 166.11 478.55 149.48 489.12 138.09 Z" />
<path fill="#001235" opacity="1.00" d=" M 773.10 120.09 C 775.23 121.93 776.64 124.40 778.28 126.66 C 804.07 163.08 829.83 199.52 855.63 235.94 C 879.67 201.88 903.70 167.81 927.74 133.74 C 931.22 129.31 933.81 124.06 937.93 120.19 C 938.09 175.89 937.96 231.58 937.99 287.28 C 926.74 287.28 915.49 287.30 904.25 287.26 C 904.20 264.45 904.35 241.64 904.17 218.83 C 888.07 242.07 872.68 265.82 856.70 289.14 C 856.23 289.23 855.30 289.41 854.84 289.50 C 838.72 265.97 823.03 242.12 807.02 218.51 C 806.96 241.43 807.02 264.35 806.99 287.28 C 795.66 287.28 784.33 287.29 773.01 287.28 C 773.06 231.55 772.87 175.81 773.10 120.09 Z" />
<path fill="#001235" opacity="1.00" d=" M 1340.53 121.76 C 1359.98 118.52 1380.65 121.36 1397.98 130.97 C 1412.51 138.94 1424.36 151.61 1431.46 166.59 C 1445.09 195.54 1442.61 232.25 1423.07 257.98 C 1411.97 272.73 1395.53 283.19 1377.62 287.47 C 1358.90 291.93 1338.68 290.61 1320.95 283.00 C 1306.60 276.87 1294.15 266.40 1285.73 253.26 C 1275.92 238.15 1271.60 219.86 1272.31 201.95 C 1272.89 183.76 1278.85 165.57 1290.19 151.22 C 1302.43 135.46 1320.89 124.97 1340.53 121.76 M 1345.46 152.53 C 1329.07 155.58 1315.41 168.26 1310.12 183.92 C 1303.20 203.95 1305.84 228.43 1320.68 244.32 C 1334.04 258.83 1356.53 262.65 1374.61 255.61 C 1389.21 250.10 1399.90 236.65 1403.53 221.66 C 1408.22 202.63 1404.78 180.57 1391.00 165.99 C 1379.63 153.74 1361.59 149.16 1345.46 152.53 Z" />
<path fill="#001235" opacity="1.00" d=" M 1462.66 120.07 C 1475.02 131.42 1486.76 143.45 1498.88 155.07 C 1519.25 174.93 1539.61 194.81 1559.99 214.65 C 1560.03 184.22 1559.96 153.79 1560.03 123.36 C 1571.34 123.38 1582.65 123.40 1593.96 123.35 C 1594.02 179.00 1594.03 234.65 1593.95 290.30 C 1588.42 286.16 1583.94 280.76 1578.84 276.12 C 1551.39 249.36 1523.97 222.59 1496.51 195.85 C 1496.39 226.30 1496.70 256.75 1496.36 287.19 C 1485.07 287.04 1473.79 287.17 1462.51 287.12 C 1462.48 234.41 1462.51 181.71 1462.49 129.00 C 1462.46 126.02 1462.45 123.04 1462.66 120.07 Z" />
<path fill="#001235" opacity="1.00" d=" M 603.57 123.49 C 616.63 123.49 629.69 123.53 642.75 123.47 C 655.11 144.24 667.22 165.16 679.53 185.96 C 679.75 185.89 680.19 185.77 680.41 185.71 C 692.76 165.00 704.68 144.03 717.19 123.41 C 730.22 123.62 743.25 123.42 756.29 123.52 C 736.71 155.77 716.66 187.76 697.13 220.05 C 696.82 242.35 697.09 264.68 697.00 287.00 C 685.75 287.00 674.49 287.01 663.24 286.99 C 663.19 264.96 663.38 242.91 663.16 220.89 C 643.61 188.25 623.18 156.10 603.57 123.49 Z" />
<path fill="#001235" opacity="1.00" d=" M 1115.05 123.47 C 1126.31 123.47 1137.59 123.60 1148.86 123.41 C 1149.19 144.76 1148.90 166.13 1149.00 187.49 C 1171.16 187.50 1193.33 187.50 1215.49 187.49 C 1215.52 166.16 1215.47 144.83 1215.51 123.50 C 1226.76 123.51 1238.00 123.48 1249.25 123.51 C 1249.25 178.00 1249.25 232.50 1249.25 286.99 C 1237.99 286.98 1226.73 287.04 1215.48 286.96 C 1215.52 264.14 1215.49 241.33 1215.49 218.51 C 1193.33 218.50 1171.16 218.50 1149.00 218.51 C 1148.99 241.34 1149.00 264.17 1149.00 287.00 C 1137.66 287.00 1126.33 287.00 1115.00 287.00 C 1115.03 232.49 1114.94 177.98 1115.05 123.47 Z" />
<path fill="#001235" opacity="1.00" d=" M 1611.57 123.49 C 1624.64 123.50 1637.71 123.52 1650.78 123.48 C 1663.29 144.37 1675.22 165.63 1687.98 186.36 C 1700.40 165.50 1712.63 144.52 1724.89 123.57 C 1737.99 123.42 1751.11 123.52 1764.22 123.52 C 1744.76 155.84 1724.60 187.76 1705.13 220.07 C 1704.82 242.36 1705.09 264.69 1705.00 287.00 C 1693.74 286.99 1682.49 287.03 1671.24 286.98 C 1671.28 265.98 1671.21 244.98 1671.28 223.99 C 1671.20 222.48 1671.45 220.83 1670.51 219.55 C 1650.91 187.50 1631.01 155.63 1611.57 123.49 Z" />
<path fill="#001235" opacity="1.00" d=" M 970.50 123.50 C 992.65 123.50 1014.79 123.47 1036.94 123.52 C 1052.33 123.64 1068.18 128.86 1079.12 140.01 C 1088.80 149.68 1093.55 163.49 1093.50 177.03 C 1093.72 190.43 1089.40 204.19 1080.11 214.06 C 1069.43 225.59 1053.55 231.14 1038.08 231.47 C 1026.89 231.55 1015.70 231.47 1004.51 231.51 C 1004.52 249.98 1004.46 268.46 1004.54 286.94 C 993.19 287.08 981.85 286.96 970.50 287.00 C 970.50 232.50 970.49 178.00 970.50 123.50 M 1004.51 152.91 C 1004.49 169.31 1004.50 185.71 1004.51 202.12 C 1013.99 202.12 1023.48 202.14 1032.97 202.11 C 1038.77 202.06 1044.78 200.92 1049.69 197.65 C 1054.67 194.42 1057.85 188.89 1058.78 183.08 C 1060.02 175.53 1058.93 167.06 1053.75 161.11 C 1048.68 155.20 1040.59 152.91 1033.04 152.91 C 1023.53 152.90 1014.02 152.90 1004.51 152.91 Z" />
</g>
</svg>
