<?xml version="1.0" encoding="UTF-8" ?>
<!DOCTYPE svg PUBLIC "-//W3C//DTD SVG 1.1//EN" "http://www.w3.org/Graphics/SVG/1.1/DTD/svg11.dtd">
<svg width="886pt" height="848pt" viewBox="0 0 886 848" version="1.1" xmlns="http://www.w3.org/2000/svg">
<g id="#ebf6fcff">
<path fill="#ebf6fc" opacity="1.00" d=" M 334.53 122.63 C 337.18 122.52 339.83 122.39 342.49 122.30 L 342.43 121.65 C 357.46 120.94 372.52 120.97 387.55 121.68 L 387.43 122.34 C 390.25 122.45 393.17 122.25 395.87 123.22 C 398.12 123.40 400.38 123.59 402.64 123.71 L 402.35 124.29 C 404.38 124.43 406.42 124.60 408.46 124.71 L 408.48 125.43 C 410.14 125.51 411.80 125.62 413.48 125.71 L 413.50 126.26 C 414.71 126.41 415.92 126.57 417.13 126.74 C 419.02 127.29 420.95 127.72 422.84 128.31 C 423.52 128.39 424.88 128.54 425.56 128.61 L 425.51 129.32 C 426.86 129.41 428.22 129.50 429.58 129.59 L 429.55 130.32 C 430.91 130.48 432.28 130.65 433.65 130.82 L 433.38 132.23 C 432.71 135.44 432.61 138.73 432.65 142.01 C 432.89 165.70 432.53 189.40 432.83 213.09 C 407.71 213.12 382.58 213.02 357.46 213.14 C 357.67 263.63 357.43 314.12 357.58 364.61 C 307.40 364.65 257.21 364.65 207.03 364.61 C 206.96 390.30 207.02 415.98 207.00 441.66 C 207.00 466.61 207.00 491.57 207.00 516.52 C 257.18 516.47 307.36 516.52 357.55 516.50 C 357.51 566.67 357.58 616.83 357.51 667.00 C 382.76 667.00 408.01 666.99 433.25 667.01 C 434.88 677.73 432.61 688.68 434.52 699.39 L 434.74 700.72 C 412.83 701.16 390.90 700.79 368.98 700.91 C 311.66 700.92 254.34 700.89 197.02 700.93 C 194.64 700.82 191.87 701.53 190.14 699.45 C 188.60 697.93 186.23 698.55 184.30 698.25 L 184.64 697.70 C 182.59 697.57 180.55 697.40 178.51 697.31 L 178.48 696.61 C 176.82 696.51 175.15 696.37 173.50 696.29 L 173.49 695.74 C 172.30 695.57 171.11 695.39 169.92 695.20 C 168.49 694.73 167.02 694.42 165.55 694.18 L 165.48 693.82 C 163.13 693.36 160.84 692.63 158.48 692.19 L 158.55 691.61 C 157.88 691.54 156.55 691.39 155.89 691.31 C 154.61 690.68 153.30 690.11 152.01 689.52 C 151.75 689.51 151.24 689.49 150.98 689.48 C 149.69 688.89 148.40 688.35 147.11 687.80 C 145.41 687.15 143.73 686.45 142.05 685.75 C 139.58 684.68 137.14 683.51 134.70 682.38 C 133.38 681.68 132.05 680.98 130.73 680.30 C 129.45 679.59 128.17 678.90 126.88 678.24 C 124.91 677.14 122.96 676.02 121.04 674.84 C 116.91 672.36 112.98 669.58 109.07 666.79 C 107.98 665.97 106.91 665.14 105.80 664.36 C 101.44 661.04 97.29 657.45 93.32 653.67 C 93.07 653.43 92.58 652.93 92.33 652.69 C 91.87 652.33 90.95 651.61 90.48 651.25 L 90.48 650.78 C 90.17 650.53 89.54 650.03 89.23 649.78 C 88.56 649.09 87.89 648.42 87.22 647.76 C 86.98 647.50 86.51 646.99 86.27 646.73 C 78.35 638.55 71.38 629.48 65.25 619.90 C 64.42 618.58 63.61 617.26 62.80 615.94 C 60.22 611.29 57.56 606.68 55.32 601.85 C 54.41 599.89 53.50 597.93 52.52 596.01 C 52.49 595.77 52.44 595.29 52.41 595.05 C 51.77 593.77 51.20 592.45 50.62 591.15 C 50.02 589.40 49.36 587.67 48.61 585.99 C 48.57 585.75 48.50 585.27 48.46 585.03 C 47.80 583.43 47.24 581.80 46.61 580.20 C 46.51 579.63 46.30 578.50 46.20 577.93 C 45.72 576.65 45.29 575.35 44.83 574.07 C 44.60 573.03 44.35 571.99 44.10 570.96 C 43.73 569.49 43.49 567.99 43.27 566.50 L 42.69 566.49 C 42.58 564.81 42.44 563.15 42.32 561.48 L 41.68 561.59 C 41.54 559.72 41.37 557.86 41.14 556.01 C 40.30 553.93 40.42 551.66 40.31 549.48 L 39.67 549.58 C 38.82 535.25 38.84 520.87 39.72 506.54 L 40.35 506.58 C 40.43 504.40 40.40 502.18 41.22 500.13 C 41.42 498.25 41.61 496.37 41.74 494.50 L 42.37 494.55 C 42.48 493.33 42.60 492.13 42.74 490.92 C 43.62 488.28 44.15 485.54 44.80 482.85 C 45.61 480.27 46.30 477.65 47.27 475.13 C 47.38 474.56 47.60 473.42 47.71 472.86 C 48.31 471.58 48.89 470.28 49.49 469.02 C 49.50 468.76 49.51 468.24 49.51 467.99 C 50.15 466.67 50.76 465.35 51.40 464.05 C 51.43 463.75 51.48 463.17 51.50 462.87 C 52.15 461.64 52.74 460.38 53.34 459.13 C 54.35 456.64 55.56 454.23 56.65 451.79 C 57.15 450.86 57.65 449.95 58.16 449.05 C 60.07 445.38 62.06 441.76 64.21 438.24 C 66.17 435.16 68.22 432.15 70.27 429.13 C 71.07 428.03 71.89 426.94 72.69 425.85 C 84.52 409.83 99.33 396.08 115.93 385.10 C 116.93 384.46 117.94 383.82 118.95 383.19 C 120.90 382.00 122.86 380.82 124.78 379.59 C 125.98 379.05 127.17 378.50 128.39 378.00 C 128.78 376.83 129.18 375.66 129.57 374.50 L 128.75 374.52 C 128.29 362.50 128.42 350.48 128.76 338.46 L 129.26 338.59 C 129.37 335.39 129.65 332.19 129.87 329.00 C 130.55 326.88 130.56 324.65 130.63 322.45 L 131.29 322.42 C 131.38 320.44 131.50 318.48 131.63 316.51 L 132.30 316.55 C 132.38 314.49 132.53 312.44 132.62 310.39 L 133.36 310.45 C 133.46 308.80 133.57 307.15 133.67 305.50 L 134.26 305.60 C 134.45 304.08 134.72 302.57 135.16 301.11 C 135.41 300.06 135.66 299.01 135.92 297.97 C 136.21 296.77 136.47 295.56 136.70 294.34 L 137.33 294.41 C 137.42 293.09 137.51 291.78 137.61 290.47 L 138.19 290.52 C 138.48 289.06 138.81 287.61 139.25 286.19 C 139.60 285.16 139.95 284.13 140.31 283.11 C 140.88 281.42 141.46 279.73 142.05 278.05 C 142.40 277.06 142.75 276.07 143.11 275.09 C 143.50 274.09 143.90 273.11 144.31 272.13 C 146.06 267.37 147.97 262.65 150.24 258.10 C 151.05 256.34 151.88 254.60 152.68 252.84 C 153.73 250.87 154.75 248.88 155.76 246.89 C 157.22 244.28 158.63 241.63 160.17 239.05 C 165.52 229.71 171.63 220.82 178.20 212.29 C 186.91 201.08 196.74 190.76 207.20 181.18 C 209.39 179.38 211.52 177.50 213.68 175.65 C 213.95 175.44 214.50 175.02 214.78 174.81 C 217.50 172.55 220.30 170.39 223.09 168.23 C 224.65 167.09 226.20 165.93 227.76 164.78 C 232.32 161.52 237.07 158.55 241.77 155.48 L 242.17 155.45 C 242.99 154.88 243.82 154.32 244.66 153.77 C 245.77 153.14 246.88 152.50 247.99 151.85 C 249.02 151.29 250.05 150.72 251.10 150.16 C 252.39 149.46 253.69 148.76 255.00 148.07 C 259.82 145.39 264.90 143.21 269.88 140.84 C 273.59 139.27 277.30 137.71 281.09 136.32 C 282.10 135.92 283.11 135.53 284.13 135.15 C 285.25 134.78 286.39 134.46 287.54 134.18 L 287.48 133.54 C 288.24 133.50 289.77 133.42 290.53 133.38 L 290.51 132.69 C 291.14 132.58 292.42 132.34 293.05 132.22 C 294.21 131.84 295.38 131.50 296.56 131.21 L 296.48 130.63 C 297.26 130.60 298.80 130.53 299.57 130.50 L 299.58 129.74 C 300.75 129.60 301.92 129.45 303.09 129.29 C 304.40 128.80 305.76 128.46 307.12 128.13 C 308.70 127.68 310.31 127.31 311.89 126.83 C 313.26 126.59 314.65 126.36 316.03 126.12 C 317.98 125.66 319.99 125.42 321.90 124.77 C 323.45 124.61 325.00 124.47 326.56 124.34 L 326.46 123.72 C 329.13 123.57 331.80 123.34 334.49 123.28 L 334.53 122.63 Z" />
</g>
<g id="#bde6fcff">
<path fill="#bde6fc" opacity="1.00" d=" M 433.38 132.23 C 433.72 132.00 434.40 131.56 434.73 131.33 C 436.11 132.00 437.51 132.63 438.90 133.29 C 439.57 133.36 440.90 133.50 441.56 133.57 L 441.54 134.29 C 442.18 134.39 443.46 134.58 444.11 134.67 C 445.10 135.09 446.11 135.48 447.13 135.85 C 448.38 136.35 449.64 136.82 450.91 137.32 C 453.26 138.23 455.60 139.19 457.92 140.19 C 462.92 142.49 468.01 144.63 472.84 147.27 C 473.89 147.80 474.96 148.34 476.02 148.88 C 478.37 150.18 480.73 151.45 483.07 152.77 C 484.16 153.42 485.27 154.07 486.39 154.70 C 487.20 155.23 488.02 155.76 488.85 156.29 C 492.99 158.74 496.94 161.48 500.89 164.24 C 513.27 172.93 524.75 182.86 535.21 193.77 C 535.52 194.03 536.13 194.55 536.43 194.81 L 536.53 195.20 C 542.55 201.36 548.04 208.00 553.26 214.85 C 554.24 216.18 555.24 217.49 556.24 218.82 C 558.59 222.15 560.90 225.51 563.18 228.89 C 564.04 230.32 564.91 231.73 565.80 233.15 C 566.44 234.21 567.07 235.29 567.71 236.37 C 568.22 237.19 568.73 238.01 569.24 238.84 C 569.92 240.03 570.44 241.36 571.35 242.42 C 574.05 242.84 576.80 242.60 579.53 242.66 L 579.44 243.31 C 582.46 243.37 585.49 243.56 588.53 243.64 L 588.59 244.25 C 591.06 244.37 593.54 244.51 595.96 245.12 C 597.33 245.38 598.70 245.59 600.09 245.82 C 602.89 246.49 605.69 247.18 608.53 247.73 L 608.54 248.25 C 609.73 248.39 610.93 248.54 612.14 248.71 C 616.82 250.41 621.58 251.93 626.24 253.73 C 627.85 254.46 629.47 255.17 631.12 255.85 C 634.12 257.17 637.06 258.61 640.01 260.07 C 641.90 261.12 643.79 262.19 645.68 263.27 C 650.65 266.19 655.49 269.33 660.17 272.71 C 661.88 274.05 663.58 275.40 665.33 276.70 C 667.50 278.51 669.60 280.40 671.75 282.24 C 682.96 292.13 692.51 303.88 700.33 316.59 C 702.57 320.36 704.77 324.17 706.68 328.12 C 706.95 328.62 707.47 329.63 707.73 330.13 C 708.99 332.73 710.10 335.41 711.40 338.00 C 711.44 338.24 711.52 338.72 711.56 338.96 C 712.01 340.00 712.44 341.05 712.86 342.11 C 713.33 343.35 713.78 344.60 714.27 345.85 C 715.21 348.70 716.21 351.55 716.79 354.51 L 717.19 354.52 C 717.67 357.07 718.40 359.56 718.93 362.10 C 719.44 364.00 719.70 365.96 720.04 367.90 C 720.24 370.15 722.17 371.15 724.04 371.90 C 725.37 372.53 726.71 373.18 728.05 373.84 C 734.87 377.57 741.50 381.66 747.78 386.25 C 757.39 393.51 766.27 401.71 774.24 410.74 C 784.93 423.06 794.36 436.53 801.81 451.05 C 802.31 451.95 802.83 452.86 803.35 453.77 C 804.98 457.14 806.60 460.52 808.16 463.93 C 809.06 465.98 809.97 468.02 810.81 470.10 C 811.47 471.75 812.12 473.40 812.76 475.08 C 813.24 476.31 813.72 477.57 814.23 478.82 C 814.53 479.80 814.87 480.78 815.23 481.75 C 815.56 482.77 815.91 483.79 816.29 484.82 C 816.55 485.83 816.84 486.86 817.15 487.88 C 817.52 488.88 817.91 489.89 818.33 490.89 C 818.39 491.56 818.51 492.89 818.58 493.56 L 819.34 493.55 C 819.43 494.85 819.53 496.17 819.64 497.49 L 820.32 497.45 C 820.45 498.64 820.61 499.85 820.78 501.06 C 821.22 502.38 821.54 503.74 821.86 505.11 C 822.28 507.04 822.63 509.00 823.10 510.93 C 823.38 512.93 823.65 514.95 824.19 516.92 C 824.38 518.80 824.55 520.69 824.67 522.59 L 825.29 522.42 C 825.36 525.20 825.53 527.97 825.61 530.76 L 826.37 530.32 C 826.96 542.01 826.96 553.72 826.19 565.40 L 825.51 565.22 C 825.38 566.82 825.34 568.47 824.90 570.05 C 824.41 573.72 823.70 577.37 823.09 581.04 C 822.64 582.64 822.27 584.27 821.84 585.89 C 821.34 588.11 820.68 590.29 820.23 592.53 L 819.87 592.57 C 819.47 594.46 818.88 596.32 818.30 598.17 C 817.79 599.40 817.32 600.65 816.84 601.91 C 816.31 603.30 815.76 604.69 815.24 606.10 C 814.18 608.41 813.15 610.74 812.11 613.07 C 811.63 613.97 811.17 614.88 810.71 615.80 C 806.99 623.37 802.16 630.32 797.26 637.17 C 792.90 642.79 788.14 648.08 782.96 652.95 C 779.35 656.38 775.57 659.62 771.73 662.78 C 766.45 666.99 760.76 670.62 755.02 674.15 C 753.99 674.70 752.96 675.26 751.95 675.83 C 745.01 679.95 737.59 683.17 730.14 686.23 C 728.70 686.73 727.29 687.28 725.87 687.79 C 724.88 688.17 723.89 688.54 722.91 688.92 C 721.90 689.23 720.89 689.55 719.90 689.88 C 718.88 690.19 717.86 690.49 716.85 690.79 C 715.84 691.13 714.84 691.46 713.84 691.80 C 712.53 692.20 711.19 692.49 709.87 692.82 C 708.55 693.21 707.20 693.51 705.88 693.85 C 700.80 695.06 695.69 696.35 690.47 696.72 L 690.45 697.34 C 688.50 697.38 686.56 697.49 684.62 697.54 C 684.54 697.72 684.38 698.08 684.31 698.26 C 680.70 698.39 677.11 698.69 673.51 698.73 L 673.51 699.30 C 652.01 700.13 630.49 699.77 608.97 699.85 C 552.34 699.86 495.71 699.82 439.08 699.86 C 437.58 699.68 435.84 700.22 434.52 699.39 C 432.61 688.68 434.88 677.73 433.25 667.01 L 433.16 666.42 C 458.57 666.47 483.97 666.47 509.38 666.42 C 509.32 616.44 509.36 566.47 509.36 516.49 C 559.57 516.53 609.79 516.46 660.00 516.53 C 660.00 490.91 660.00 465.30 660.00 439.68 C 659.98 414.66 660.04 389.63 659.97 364.61 C 609.75 364.68 559.54 364.63 509.32 364.63 C 509.43 314.14 509.28 263.65 509.39 213.15 C 484.35 213.03 459.31 213.14 434.26 213.09 L 432.83 213.09 C 432.53 189.40 432.89 165.70 432.65 142.01 C 432.61 138.73 432.71 135.44 433.38 132.23 Z" />
</g>
<g id="#b71c1cff">
<path fill="#b71c1c" opacity="1.00" d=" M 357.46 213.14 C 382.58 213.02 407.71 213.12 432.83 213.09 L 434.26 213.09 C 434.45 288.79 434.37 364.49 434.30 440.18 C 455.88 440.64 477.47 440.20 499.05 440.41 C 504.73 440.54 510.36 439.69 516.02 439.61 C 564.02 439.69 612.01 439.57 660.00 439.68 C 660.00 465.30 660.00 490.91 660.00 516.53 C 609.79 516.46 559.57 516.53 509.36 516.49 C 509.36 566.47 509.32 616.44 509.38 666.42 C 483.97 666.47 458.57 666.47 433.16 666.42 C 432.82 664.27 432.52 662.13 432.47 659.97 C 432.56 603.31 432.49 546.65 432.51 490.00 C 432.41 473.85 432.72 457.69 432.36 441.55 C 357.24 441.68 282.12 441.47 207.00 441.66 C 207.02 415.98 206.96 390.30 207.03 364.61 C 257.21 364.65 307.40 364.65 357.58 364.61 C 357.43 314.12 357.67 263.63 357.46 213.14 Z" />
</g>
<g id="#f44336ff">
<path fill="#f44336" opacity="1.00" d=" M 434.26 213.09 C 459.31 213.14 484.35 213.03 509.39 213.15 C 509.28 263.65 509.43 314.14 509.32 364.63 C 559.54 364.63 609.75 364.68 659.97 364.61 C 660.04 389.63 659.98 414.66 660.00 439.68 C 612.01 439.57 564.02 439.69 516.02 439.61 C 510.36 439.69 504.73 440.54 499.05 440.41 C 477.47 440.20 455.88 440.64 434.30 440.18 C 434.37 364.49 434.45 288.79 434.26 213.09 Z" />
<path fill="#f44336" opacity="1.00" d=" M 207.00 441.66 C 282.12 441.47 357.24 441.68 432.36 441.55 C 432.72 457.69 432.41 473.85 432.51 490.00 C 432.49 546.65 432.56 603.31 432.47 659.97 C 432.52 662.13 432.82 664.27 433.16 666.42 L 433.25 667.01 C 408.01 666.99 382.76 667.00 357.51 667.00 C 357.58 616.83 357.51 566.67 357.55 516.50 C 307.36 516.52 257.18 516.47 207.00 516.52 C 207.00 491.57 207.00 466.61 207.00 441.66 Z" />
</g>
</svg>
